<svg viewBox="0 0 64 64" id="fill" xmlns="http://www.w3.org/2000/svg" fill="#000000"><g id="SVGRepo_bgCarrier" stroke-width="0"></g><g id="SVGRepo_tracerCarrier" stroke-linecap="round" stroke-linejoin="round"></g><g id="SVGRepo_iconCarrier"><polygon points="23 23 23 21 13 11 13 8 8 3 8 8 3 8 8 13 11 13 21 23 23 23" style="fill:#35cccc"></polygon><polygon points="41 41 41 43 51 53 51 56 56 61 56 56 61 56 56 51 53 51 43 41 41 41" style="fill:#35cccc"></polygon><polygon points="27.749 52.464 26.335 51.05 12.192 51.05 10.071 48.929 3 48.929 6.536 52.464 3 56 10.071 56 12.192 53.879 26.335 53.879 27.749 52.464" style="fill:#35cccc"></polygon><circle cx="32" cy="32" r="25" style="fill:#fff"></circle><path d="M41.192,22.808A13,13,0,1,1,22.808,41.192l-8.486,8.486A25,25,0,0,0,49.678,14.322Z" style="fill:#fff"></path><circle cx="32" cy="32" r="19" style="fill:#444"></circle><path d="M36.243,27.757a6,6,0,0,1-8.486,8.486l-9.192,9.192a19,19,0,1,0,26.87-26.87Z"></path><circle cx="32" cy="32" r="13" style="fill:#fff"></circle><path d="M32,45a13,13,0,0,0,9.192-22.192L22.808,41.192A12.956,12.956,0,0,0,32,45Z" style="fill:#fff"></path><circle cx="32" cy="32" r="6" style="fill:#444"></circle><path d="M32,38a6,6,0,0,0,4.243-10.243l-8.486,8.486A5.985,5.985,0,0,0,32,38Z"></path><circle cx="32" cy="32" r="2" style="fill:#fff"></circle><polygon points="32 32 32 29 46 15 46 11 53 4 53 11 60 11 53 18 49 18 35 32 32 32" style="fill:#35cccc">
</polygon><path d="M53.542,17.458,53,18H51.475A24.038,24.038,0,1,1,46,12.525V11l.542-.542a26.023,26.023,0,1,0,7,7Z"></path></g></svg>